<svg xmlns="http://www.w3.org/2000/svg" viewBox="0 0 24 24">
	<title>
		hike
	</title>
		<path d="M13.508 10H15a1 1 0 0 1 0 2h-2a1 1 0 0 1-.868-.503l-1.815-2.405-.32.899L10 10l3.949 10.675a1 1 0 1 1-1.892.651l-3.107-8.4-2.994 8.397a1 1 0 0 1-1.891-.65l4.988-13.99a1 1 0 0 1 1.719-.31l.002.002.045.06L13.508 10zm-7.55 2.33a1 1 0 1 1-1.892-.652l2.002-5.996a1 1 0 1 1 1.891.652L5.957 12.33zm11.023 8.874a1 1 0 1 1-1.956-.416l2.98-13.985a1 1 0 1 1 1.956.416l-2.98 13.985zM10.51 5a1.5 1.5 0 1 1 0-3 1.5 1.5 0 0 1 0 3z"/>
	</svg>